<svg xmlns="http://www.w3.org/2000/svg" viewBox="0 0 32 32" width="32" height="32">
  <defs>
    <linearGradient id="usdt-gradient" x1="0%" y1="0%" x2="100%" y2="100%">
      <stop offset="0%" style="stop-color:#26a17b"/>
      <stop offset="100%" style="stop-color:#1e8a64"/>
    </linearGradient>
  </defs>
  <circle cx="16" cy="16" r="16" fill="url(#usdt-gradient)"/>
  <path d="M17.922 17.383v-.002c-.11.008-.677.042-1.942.042-1.01 0-1.721-.03-1.971-.042v.003c-3.888-.171-6.79-.848-6.79-1.658 0-.809 2.902-1.486 6.79-1.66v2.644c.254.018.982.061 1.988.061 1.207 0 1.812-.05 1.925-.06v-2.643c3.88.173 6.775.85 6.775 1.658 0 .81-2.895 1.485-6.775 1.657z" fill="white"/>
  <path d="M15.987 21.982c6.207 0 11.24-1.267 11.24-2.83V16.3c0 1.563-5.033 2.83-11.24 2.83S4.747 17.863 4.747 16.3v2.852c0 1.563 5.033 2.83 11.24 2.83z" fill="white"/>
  <path d="M10.47 10.47v1.714c0 .61.61 1.22 1.22 1.22h2.44v-1.22h-1.83v-.714h1.83v-1.22h-2.44c-.61 0-1.22.61-1.22 1.22z" fill="white"/>
  <path d="M17.383 10.47h2.44c.61 0 1.22.61 1.22 1.22v1.714h-1.22v-.714h-1.83v1.22h1.83v1.22h-2.44c-.61 0-1.22-.61-1.22-1.22v-1.714c0-.61.61-1.22 1.22-1.22z" fill="white"/>
  <path d="M14.4 10.47h1.22v2.934h-1.22z" fill="white"/>
</svg>
